<svg xmlns="http://www.w3.org/2000/svg" viewBox="0.53 26 1022.94 1024"><path d="M492 1028q10 0 20-3t20-8q23-14 48-20.5t50-6.5h16.5q8.5 0 16.5 2 4 0 8.5 1t7.5 1q18 0 33-8t27-25q20-28 47-48t62-30q24-7 37.5-22t18.5-40q5-35 21.5-64t42.5-52q19-17 24-36t-1-42q-10-33-8.5-66.5T997 493q10-23 5.5-42T982 413q-24-25-37-56t-17-66q-1-25-13-41t-36-26q-33-13-58-35t-42-52q-12-20-27.5-30T712 97h-22q-32 0-60-8.5T577 62q-12-9-22.5-12.5T532 46q-10 0-20 3t-20 8q-23 14-48 20.5T394 84q-8 0-16.5-.5T361 82q-4 0-8.5-1.5T345 79q-18 0-33 8.5T285 113q-20 28-47 48t-62 30q-24 6-37.5 21.5T120 253q-5 35-21.5 63.5T56 369q-19 17-24 35.5t1 42.5q10 33 8.5 66.5T27 580q-9 25-4 44.5T45 663q23 25 36.5 56T98 785q2 25 14 41t35 26q33 13 58 35t42 52q12 20 28 30t39 10h22q32 0 60.5 8.5T450 1014q10 7 20 10.5t22 3.5zm0 22q-15 0-28.5-5t-27.5-15q-23-17-48.5-24t-53.5-7h-22q-29 0-50.5-13T227 948q-15-27-38-47t-51-31q-30-12-45.5-33.5T76 785q-2-32-13.5-59T29 676Q7 653 2 627t7-56q12-28 13-58t-9-60q-8-30-1-55t30-47q24-22 37.5-47.5T98 246q5-30 22-50t49-30q30-5 54.5-21.5T265 102q15-22 34.5-32.5T343 59q5 0 10 .5t10 2.5q8 1 15 1.5t14 .5q23 0 45-5.5T479 42q15-9 27.5-12.5T532 26q15 0 28.5 5T588 46q23 17 48.5 24t53.5 7h22q29 0 50.5 13t34.5 38q15 27 38 47t51 31q30 12 45.5 33.5T948 291q2 32 13.5 59t33.5 50q22 23 27 49t-7 56q-12 28-13 58t9 60q8 30 1 55t-30 47q-24 22-37.5 47.5T926 830q-5 30-22 50t-49 30q-32 5-56 21.5T757 974q-15 22-35 32.5t-43 10.5q-5 0-10-.5t-10-2.5q-8-1-15-1.5t-14-.5q-23 0-45 5.5t-42 16.5q-13 9-26 12.5t-25 3.5zm13-165q74 0 138.5-28t113-76.5Q805 732 833 667.5T861 529q0-73-28-138t-76.5-113.5Q708 229 643.5 201T505 173q-73 0-138 28t-113.5 76.5Q205 326 177 391t-28 138q0 74 28 138.5t76.5 113Q302 829 367 857t138 28zm0 23q-78 0-147-30t-120.5-81.5q-51.5-51.5-81-120T127 529q0-78 29.5-147t81-120.5Q289 210 358 180.5T505 151q79 0 148 29.5t120 81Q824 313 854 382t30 147q-1 79-31 147.5t-81.5 120Q720 848 651.5 878T505 908zm3-223q-10 0-18.5-3t-13.5-6q-6-5-44-36t-65-53l-31-27q-3-3-3.5-7.5t1.5-7.5q3-4 7.5-4t7.5 1l32 25q35 28 68.5 55.5T488 654q3 3 10 4.5t12 1.5q5 0 7-2.5t2-3.5q1-4 3-5.5t6-1.5q3 0 5 .5l6 1.5q5 5 12 5.5t12-.5q4-2 5.5-4t3.5-5q0-3 1.5-6t5.5-3q3-2 6-.5l5 2.5q2 2 7.5 2t10.5-2q3-1 6-4.5t3-8.5q0-4 1-7t3-4q3-2 6.5-2t4.5 2q2 1 5 0t6-3q4-3 5-7.5t-2-9.5q-10-20-50.5-59.5T523 473q-8 4-11.5 4.5t-10.5.5q-8 12-25 27t-42 6q-8-3-13-8.5t-7-13.5q-5-18 6-40t21-33q18-19 50.5-30.5T559 391q33 15 52 21l19 6q5 1 6.5 5.5t.5 7.5q-2 5-6 6.5t-8 .5q-1 0-20.5-7T550 409q-27-12-53-3.5T456 429q-10 8-17 24.5t-5 26.5q0 2 1.5 3.5l3.5 3.5q11 3 21.5-4.5T481 458l3.5-3.5q1.5-1.5 5.5-1.5h4q5 0 7.5-.5T512 449l7-2q1-2 4-1t5 3q30 20 75.5 63t57.5 68q7 12 4 24t-13 21l-10 6q-5 3-12 3-2 6-6.5 11t-11.5 9q-7 3-14.5 4.5T583 658q-3 5-7 8.5t-11 5.5q-8 3-17.5 3t-17.5-3q-4 3-9 5.5t-11 2.5q1 4 0 4.5t-2 .5zm-36-265q-18-2-50-3t-46-1q-5 0-8-3.5t-3-8.5q0-5 3-8t8-3q14 0 47 .5t51 4.5q5 0 8 4t1 9q0 5-4 7t-7 2zm185 176q-4 0-6-1.5t-3-3.5q-4-3-2.5-7.5t4.5-7.5l22-16q4-3 8.5-2t7.5 4q3 4 2 8.5t-4 7.5l-23 16q-1 1-3 1.5t-3 .5zm-34 40q-1 0-3-.5t-3-1.5q-9-7-41.5-37.5T541 565q-3-4-3-8.5t3-7.5q3-3 7.5-3t8.5 3q13 12 39.5 37t33.5 30q3 3 4.5 7.5T632 631q-1 2-3 3.5t-6 1.5zm-42 22h-3.5q-1.5 0-3.5-2-10-8-34.5-29.5T510 598q-4-3-4-7.5t4-7.5q3-4 7.5-4t7.5 4q4 5 27.5 25t35.5 30q3 4 4 8t-2 8q-2 1-4.5 2.5T581 658zm-51 11h-3.5q-1.5 0-3.5-2-12-10-25-23.5T476 620q-3-3-3-7.5t3-7.5q4-4 8.5-4t7.5 4q10 10 22.5 23t24.5 21q3 4 3.5 8.5T541 665q-3 3-5.5 3.5t-5.5.5zm-245-71h-18q-8 0-13-2-4-2-6.5-5t-2.5-6q0-60 11-129t11-74q0-5 4-7t9-2q2 0 40.5 7t60.5 13q3 2 5.5 5t.5 6q-3 44-24 111t-22 72q-2 3-4 5t-5 2q-2 1-16 2.5t-31 1.5zm-18-22h56q6-19 21.5-71.5T365 416q-17-5-39.5-9.5T289 400q-5 22-12.5 74.5T267 576zm463 18q-18 0-30-1.5t-19-3.5q-1-1-3.5-3t-2.5-3q-7-24-25.5-75T621 442q-2-1-2-4v-5q0-1 1.5-3.5t5.5-2.5q1 0 25.5-9t54.5-9h12.5q6.5 0 11.5 2 2 0 3.5 1.5l3.5 3.5q20 28 29 92.5t11 74.5q0 1-.5 4t-1.5 4l-3.5 3.5Q770 596 768 596q0-3-11.5-2.5t-26.5.5zm-35-25q3 2 11.5 2H755q-4-28-12-74t-20-66h-15q-18 0-34 4t-26 7q11 22 25.5 63t21.5 64z"/></svg>